<svg width="23" height="26" viewBox="0 0 23 26" fill="none" xmlns="http://www.w3.org/2000/svg">
<path d="M9.8428 25.75H0.733428V0.0530305H9.91809C12.5028 0.0530305 14.7279 0.567472 16.5933 1.59636C18.4586 2.61687 19.8932 4.08491 20.897 6.00047C21.9092 7.91604 22.4152 10.208 22.4152 12.8764C22.4152 15.5532 21.9092 17.8535 20.897 19.7775C19.8932 21.7014 18.4503 23.1778 16.5682 24.2067C14.6944 25.2356 12.4527 25.75 9.8428 25.75ZM6.16643 21.0949H9.61695C11.223 21.0949 12.5739 20.8105 13.6697 20.2417C14.7739 19.6645 15.602 18.7737 16.1541 17.5691C16.7146 16.3562 16.9948 14.792 16.9948 12.8764C16.9948 10.9776 16.7146 9.4259 16.1541 8.22135C15.602 7.01681 14.7781 6.13013 13.6823 5.56132C12.5865 4.9925 11.2356 4.7081 9.6295 4.7081H6.16643V21.0949Z" fill="#246BFD"/>
</svg>
