<svg width="15" height="14" viewBox="0 0 15 14" fill="none" xmlns="http://www.w3.org/2000/svg">
    <path d="M10.5 0.075C12.5296 0.075 14.175 1.72036 14.175 3.75V9.75C14.175 11.7796 12.5296 13.425 10.5 13.425H4.5C2.47036 13.425 0.825 11.7796 0.825 9.75L0.825 3.75C0.825 1.72036 2.47036 0.075 4.5 0.075L10.5 0.075ZM7.5 3.675C5.80172 3.675 4.425 5.05172 4.425 6.75C4.425 8.44825 5.80172 9.825 7.5 9.825C9.19825 9.825 10.575 8.44825 10.575 6.75C10.575 5.05172 9.19825 3.675 7.5 3.675ZM7.5 5.325C8.28703 5.325 8.925 5.96297 8.925 6.75C8.925 7.53703 8.28703 8.175 7.5 8.175C6.71297 8.175 6.075 7.53703 6.075 6.75C6.075 5.96297 6.71297 5.325 7.5 5.325ZM10.875 2.55C10.4194 2.55 10.05 2.91937 10.05 3.375C10.05 3.83063 10.4194 4.2 10.875 4.2C11.3306 4.2 11.7 3.83063 11.7 3.375C11.7 2.91937 11.3306 2.55 10.875 2.55Z" fill="#C13584" stroke="#F6F6F6" stroke-width="0.15"/>
</svg>
