<svg width="16" height="14" viewBox="0 0 16 14" fill="none" xmlns="http://www.w3.org/2000/svg">
    <path fill-rule="evenodd" clip-rule="evenodd" d="M13.6956 0.839117C14.5074 0.499011 15.3777 1.18204 15.2344 2.04679L13.5412 12.2608C13.378 13.2456 12.2908 13.8107 11.3827 13.3199C10.6228 12.9093 9.49537 12.2772 8.47928 11.6166C7.9719 11.2868 6.41829 10.229 6.60925 9.47608C6.77253 8.83228 9.38433 6.41337 10.8768 4.97482C11.4631 4.40975 11.1961 4.0833 10.5037 4.60359C8.78614 5.89423 6.02861 7.85652 5.11673 8.40877C4.31217 8.89598 3.8921 8.97914 3.39103 8.89598C2.47603 8.7443 1.62772 8.50938 0.935138 8.22375C-0.000933319 7.83766 0.0446625 6.55778 0.934504 6.18506L13.6956 0.839117Z" fill="#26A4E2"/>
</svg>
