<svg width="15" height="13" viewBox="0 0 15 13" fill="none" xmlns="http://www.w3.org/2000/svg">
    <path fill-rule="evenodd" clip-rule="evenodd"
          d="M7.5 0.75C8.14157 0.75 8.79872 0.766814 9.43625 0.793325L10.1896 0.829338L10.9106 0.871927L11.5857 0.918359L12.2014 0.965902C13.5799 1.07776 14.6877 2.14457 14.8225 3.53332L14.8523 3.85172L14.9086 4.53418C14.9612 5.2416 15 6.013 15 6.75C15 7.487 14.9612 8.2584 14.9086 8.96582L14.8523 9.64828C14.8425 9.75725 14.8325 9.86353 14.8225 9.96667C14.6877 11.3555 13.5799 12.4222 12.2014 12.5341L11.5857 12.5816L10.9106 12.628L10.1896 12.6706L9.43625 12.7067C8.79872 12.7332 8.14157 12.75 7.5 12.75C6.85844 12.75 6.20129 12.7332 5.56376 12.7067L4.81039 12.6706L4.0894 12.628L3.4143 12.5816L2.79862 12.5341C1.42013 12.4222 0.3123 11.3555 0.17751 9.96667L0.147691 9.64828L0.0914422 8.96582C0.0388467 8.2584 0 7.487 0 6.75C0 6.013 0.0388467 5.2416 0.0914422 4.53418L0.147691 3.85172C0.15752 3.74275 0.167498 3.63646 0.17751 3.53332C0.3123 2.14457 1.42013 1.07776 2.79862 0.965902L3.4143 0.918359L4.0894 0.871927L4.81039 0.829338L5.56375 0.793325C6.20128 0.766814 6.85844 0.75 7.5 0.75ZM6 4.93135V8.56868C6 8.9151 6.375 9.13155 6.675 8.95837L9.825 7.1397C10.125 6.96653 10.125 6.53347 9.825 6.3603L6.675 4.54163C6.375 4.36843 6 4.58494 6 4.93135Z"
          fill="#FF0000"/>
</svg>
